name Walk2.mot
datacolumns 19
datarows 12
range 3.89200000 3.90300000
endheader

                time	   L_ground_force_vx	   L_ground_force_vy	   L_ground_force_vz	   L_ground_force_px	   L_ground_force_py	   L_ground_force_pz	   R_ground_force_vx	   R_ground_force_vy	   R_ground_force_vz	   R_ground_force_px	   R_ground_force_py	   R_ground_force_pz	   L_ground_torque_x	   L_ground_torque_y	   L_ground_torque_z	   R_ground_torque_x	   R_ground_torque_y	   R_ground_torque_z	
          3.89200000	          0.00000000	          0.00000000	          0.00000000	          0.00000000	          0.00000000	          0.00000000	         19.86819131	        158.30767722	          4.87957512	          0.31488791	          0.00000000	          0.12281174	          0.00000000	         -0.00000000	          0.00000000	          0.00000000	         -7.09276063	          0.00000000	
          3.89300000	          0.00000000	          0.00000000	          0.00000000	          0.00000000	          0.00000000	          0.00000000	         18.53166351	        151.17682067	          4.83529662	          0.31450491	          0.00000000	          0.12145939	          0.00000000	         -0.00000000	          0.00000000	          0.00000000	         -6.85933604	          0.00000000	
          3.89400000	          0.00000000	          0.00000000	          0.00000000	          0.00000000	          0.00000000	          0.00000000	         17.21946630	        144.22106257	          4.78224045	          0.31396046	          0.00000000	          0.12005522	          0.00000000	         -0.00000000	          0.00000000	          0.00000000	         -6.62662437	          0.00000000	
          3.89500000	          0.00000000	          0.00000000	          0.00000000	          0.00000000	          0.00000000	          0.00000000	         15.93354209	        137.44273386	          4.72104206	          0.31324517	          0.00000000	          0.11859835	          0.00000000	         -0.00000000	          0.00000000	          0.00000000	         -6.39493832	          0.00000000	
          3.89600000	          0.00000000	          0.00000000	          0.00000000	          0.00000000	          0.00000000	          0.00000000	         14.67578914	        130.84373590	          4.65231617	          0.31234964	          0.00000000	          0.11708798	          0.00000000	         -0.00000000	          0.00000000	          0.00000000	         -6.16458736	          0.00000000	
          3.89700000	          0.00000000	          0.00000000	          0.00000000	          0.00000000	          0.00000000	          0.00000000	         13.44805116	        124.42554032	          4.57665545	          0.31126454	          0.00000000	          0.11552342	          0.00000000	         -0.00000000	          0.00000000	          0.00000000	         -5.93587638	          0.00000000	
          3.89800000	          0.00000000	          0.00000000	          0.00000000	         -0.00000000	          0.00000000	          0.00000000	         12.25210671	        118.18919221	          4.49462961	          0.30998062	          0.00000000	          0.11390406	          0.00000000	         -0.00000000	          0.00000000	          0.00000000	         -5.70910445	          0.00000000	
          3.89900000	          0.00000000	          0.00000000	          0.00000000	         -0.00000000	          0.00000000	         -0.00000000	         11.08965868	        112.13531662	          4.40678480	          0.30848878	          0.00000000	          0.11222940	          0.00000000	         -0.00000000	          0.00000000	          0.00000000	         -5.48456361	          0.00000000	
          3.90000000	          0.00000000	          0.00000000	          0.00000000	         -0.00000000	          0.00000000	         -0.00000000	          9.96232436	        106.26412807	          4.31364342	          0.30678014	          0.00000000	          0.11049906	          0.00000000	         -0.00000000	          0.00000000	          0.00000000	         -5.26253768	          0.00000000	
          3.90100000	          0.00000000	          0.00000000	          0.00000000	         -0.00000000	          0.00000000	         -0.00000000	          8.87162626	        100.57544324	          4.21570433	          0.30484605	          0.00000000	          0.10871281	          0.00000000	         -0.00000000	          0.00000000	          0.00000000	         -5.04330108	          0.00000000	
          3.90200000	          0.00000000	          0.00000000	          0.00000000	         -0.00000000	          0.00000000	         -0.00000000	          7.81898367	         95.06869650	          4.11344358	          0.30267823	          0.00000000	          0.10687051	          0.00000000	         -0.00000000	          0.00000000	          0.00000000	         -4.82711767	          0.00000000	
          3.90300000	          0.00000000	          0.00000000	          0.00000000	         -0.00000000	          0.00000000	         -0.00000000	          6.80570482	         89.74295803	          4.00731558	          0.30026877	          0.00000000	          0.10497223	          0.00000000	         -0.00000000	          0.00000000	          0.00000000	         -4.61423965	          0.00000000	
